<?xml version="1.0" encoding="UTF-8" standalone="no"?>
<svg width="1068px" height="165px" viewBox="0 0 1068 165" version="1.1" xmlns="http://www.w3.org/2000/svg" xmlns:xlink="http://www.w3.org/1999/xlink">
    <!-- Generator: Sketch 41.2 (35397) - http://www.bohemiancoding.com/sketch -->
    <title>Shape</title>
    <desc>Created with Sketch.</desc>
    <defs></defs>
    <g id="Page-1" stroke="none" stroke-width="1" fill="none" fill-rule="evenodd">
        <g id="daily-ui__12__single-product-1-full__alxmrtnz" transform="translate(-150.000000, -276.000000)" fill="#FAF3EB">
            <g id="Group-7" transform="translate(0.000000, -2.000000)">
                <g id="Group">
                    <g id="Group-3" transform="translate(-8.404598, -54.605317)">
                        <g id="Group-9">
                            <path d="M228.112922,332.882413 L226.177996,332.882413 C184.33524,332.882413 159.181213,355.684633 159.181213,392.168186 C159.181213,409.449869 164.502257,441.853024 210.214864,450.253842 L232.950234,453.134122 C238.996876,453.854192 243.108592,455.534356 245.527248,458.174613 C248.18777,461.054893 249.155233,464.895267 249.155233,469.455711 C249.155233,479.536693 241.899263,485.777301 226.903593,487.217441 L219.88949,487.457464 C205.619417,487.457464 189.172553,483.137044 180.707255,474.496202 C168.855839,487.457464 162.083601,494.658165 150.232184,508.099474 C166.195316,524.90111 188.446956,530.901694 215.052177,530.901694 L220.615087,530.661671 C261.248515,529.701578 294.86784,505.219194 294.86784,467.295501 C294.86784,450.013818 290.756124,436.332486 280.839632,426.491528 C272.858066,418.81078 260.522918,413.050219 243.592323,410.409962 L220.856952,406.809611 C214.32658,405.849518 210.214864,403.209261 208.038073,400.809027 C205.135685,397.688723 204.410088,394.088373 204.410088,391.448116 C204.410088,383.527344 210.214864,375.846597 224.001206,374.166433 L224.726803,374.166433 C235.852622,374.166433 251.332023,377.52676 261.490381,388.087788 L292.932914,358.084867 C276.486051,341.763278 254.234411,333.36246 228.112922,332.882413 L228.112922,332.882413 Z M1169.93774,335.282647 L1134.14163,337.442857 L1083.34984,340.323138 L1083.34984,375.36655 L1120.83902,374.166433 C1102.69909,423.851271 1084.3173,473.296085 1065.20992,522.500876 L1113.82491,525.141134 L1123.01581,497.778469 L1181.06356,500.178703 L1189.77073,529.941601 L1238.38572,533.301928 C1216.61781,467.295501 1193.64058,401.049051 1169.93774,335.282647 L1169.93774,335.282647 Z M1169.21215,460.334823 L1136.31842,459.854777 L1153.24901,409.209845 L1169.21215,460.334823 Z M318.812538,341.043208 L318.812538,522.980923 L365.250742,520.580689 L365.250742,450.493865 L414.591334,450.013818 L414.591334,518.660502 L461.029538,516.980339 L461.029538,347.043792 L414.591334,345.363628 L414.591334,412.090126 L365.492608,411.610079 L365.492608,343.203418 L318.812538,341.043208 Z M985.394256,344.883582 L938.714186,346.803769 L938.714186,517.460386 C985.15239,519.140549 1008.61336,520.100643 1054.8097,522.260853 L1054.8097,482.656997 L985.15239,480.976833 L985.15239,344.883582 L985.394256,344.883582 Z M838.823675,347.043792 C812.702185,347.523839 796.255322,354.484517 782.227114,366.725708 C761.668534,384.487438 762.635997,408.009728 762.635997,432.972159 C762.635997,457.93459 761.668534,481.45688 782.227114,499.218609 C796.255322,511.699825 812.702185,518.420479 836.405019,518.900526 L836.88875,518.900526 C861.31718,518.900526 876.796581,512.659918 890.341057,500.898773 C910.657772,483.377067 909.932175,458.894683 909.932175,432.972159 C909.932175,407.049635 910.657772,382.567251 890.341057,365.045545 C876.796581,353.2844 861.075314,347.043792 838.823675,347.043792 L838.823675,347.043792 Z M836.646884,481.696903 C827.45599,481.696903 820.683752,478.096553 817.297633,474.016155 C812.944051,468.975665 810.283529,463.69515 810.283529,432.972159 C810.283529,402.249167 812.944051,396.488606 817.297633,391.688139 C820.683752,387.607742 827.45599,384.247415 836.405019,384.247415 C845.112182,384.247415 851.88442,387.367718 855.270539,391.448116 C859.624121,396.488606 862.284643,402.009144 862.284643,433.212182 C862.284643,464.175197 859.624121,469.695735 855.270539,474.736226 C851.88442,478.336576 845.112182,481.696903 836.646884,481.696903 L836.646884,481.696903 Z M501.4211,348.243909 L501.4211,516.020245 L547.859304,515.060152 L547.859304,349.444026 L501.4211,348.243909 Z M588.009001,350.164096 L588.009001,514.100058 L634.447205,513.620012 L634.447205,431.532019 L694.913616,513.379988 L735.78891,513.379988 L735.78891,350.884166 L700.960257,350.884166 L689.350707,350.884166 L689.350707,432.492112 L628.884295,350.404119 L588.009001,350.164096 Z" id="Shape"></path>
                        </g>
                    </g>
                </g>
            </g>
        </g>
    </g>
</svg>