<svg width="1068" height="165" viewBox="0 0 1068 165" xmlns="http://www.w3.org/2000/svg"><title>Shape</title><path d="M69.708.277h-1.935C25.931.277.777 23.08.777 59.563c0 17.282 5.32 49.685 51.033 58.086l22.736 2.88c6.046.72 10.158 2.4 12.577 5.04 2.66 2.88 3.628 6.72 3.628 11.281 0 10.081-7.256 16.322-22.252 17.762l-7.014.24c-14.27 0-30.717-4.32-39.182-12.961-11.852 12.961-18.624 20.162-30.475 33.603 15.963 16.802 38.214 22.802 64.82 22.802l5.562-.24c40.634-.96 74.253-25.442 74.253-63.366 0-17.281-4.111-30.963-14.028-40.804-7.982-7.68-20.317-13.441-37.247-16.081l-22.736-3.6c-6.53-.96-10.642-3.601-12.819-6.001-2.902-3.12-3.628-6.72-3.628-9.361 0-7.921 5.805-15.602 19.592-17.282h.725c11.126 0 26.605 3.36 36.764 13.921l31.442-30.002C118.081 9.158 95.83.757 69.708.277zm941.825 2.4l-35.796 2.16-50.792 2.88v35.044l37.49-1.2c-18.14 49.685-36.522 99.13-55.63 148.335l48.615 2.64 9.191-27.363 58.048 2.4 8.707 29.763 48.615 3.36c-21.768-66.006-44.745-132.252-68.448-198.019zm-.725 125.053l-32.894-.48 16.93-50.645 15.964 51.125zM160.408 8.438v181.938l46.438-2.4v-70.087l49.34-.48v68.646l46.439-1.68V14.438l-46.438-1.68v66.727l-49.099-.48V10.598l-46.68-2.16zm666.582 3.84l-46.68 1.92v170.657c46.438 1.68 69.899 2.64 116.095 4.8v-39.603l-69.657-1.68V12.278h.242zm-146.57 2.16c-26.122.48-42.57 7.441-56.597 19.682-20.56 17.762-19.592 41.284-19.592 66.247 0 24.962-.967 48.485 19.592 66.246 14.028 12.482 30.475 19.202 54.177 19.682h.484c24.429 0 39.908-6.24 53.452-18.002 20.317-17.521 19.592-42.004 19.592-67.926 0-25.923.725-50.405-19.592-67.927-13.544-11.76-29.265-18.002-51.517-18.002zm-2.178 134.654c-9.19 0-15.963-3.6-19.349-7.681-4.354-5.04-7.014-10.321-7.014-41.044s2.66-36.484 7.014-41.284c3.386-4.08 10.158-7.44 19.107-7.44 8.708 0 15.48 3.12 18.866 7.2 4.354 5.04 7.014 10.56 7.014 41.764 0 30.963-2.66 36.483-7.014 41.524-3.386 3.6-10.158 6.96-18.624 6.96zM343.017 15.639v167.776l46.438-.96V16.839l-46.438-1.2zm86.587 1.92v163.936l46.439-.48V98.927l60.466 81.848h40.875V18.279h-46.438v81.608L470.48 17.799l-40.876-.24z" fill="#FAF3EB" fill-rule="evenodd"/></svg>