<svg width="35" height="30" viewBox="0 0 35 30" xmlns="http://www.w3.org/2000/svg"><title>Combined Shape</title><path d="M9.4 29.292a2.415 2.415 0 1 0 0-4.83 2.415 2.415 0 0 0 0 4.83zm18.405.201a2.415 2.415 0 1 0 .001-4.83 2.415 2.415 0 0 0 0 4.83zm-16.707-9.435l.753-2.105c.979.276 1.96.365 2.866.365.503 0 .983-.026 1.427-.06 2-.154 4.101-.308 6.202-.461 2.104-.154 4.21-.308 6.214-.462a1.61 1.61 0 0 0 1.385-1.043L34.266 4.71a1.608 1.608 0 0 0-1.508-2.173H11.287a1.61 1.61 0 1 0 0 3.22h19.151l-3.151 8.447c-1.687.128-3.432.256-5.177.383-2.104.154-4.21.308-6.214.462-1.209.094-2.754.12-3.995-.505-.45-.227-.795-.494-.947-.733-.063-.1-.157-.4-.219-.6a9.973 9.973 0 0 0-.182-.549L9.225 9.123c-.16-.427-.316-.895-.481-1.39-.645-1.934-1.376-4.124-2.92-5.637A7.753 7.753 0 0 0 2.333.14a1.609 1.609 0 1 0-.782 3.122c.735.185 1.47.597 2.017 1.133.99.97 1.59 2.769 2.12 4.356.175.524.34 1.02.52 1.502l1.328 3.538c.044.116.082.244.123.374.126.405.283.91.577 1.372.2.314.45.606.744.879l-.915 2.558c-.042.115-.08.247-.118.386-.017.059-.031.122-.051.18a2.76 2.76 0 0 0-.388.987 2.4 2.4 0 0 0 .448 1.914c.58.758 1.586 1.187 3.077 1.313.435.037.855.043 1.263.043h17.005a1.61 1.61 0 1 0 0-3.22h-16.35l-.334.001c-.463.001-.9.004-1.313-.03a5.731 5.731 0 0 1-.338-.039c.033-.104.06-.202.084-.29.016-.057.03-.114.047-.161z" fill="#FAF3EB" fill-rule="evenodd"/></svg>