<?xml version="1.0" encoding="UTF-8" standalone="no"?>
<svg width="35px" height="30px" viewBox="0 0 35 30" version="1.1" xmlns="http://www.w3.org/2000/svg" xmlns:xlink="http://www.w3.org/1999/xlink">
    <!-- Generator: Sketch 41.2 (35397) - http://www.bohemiancoding.com/sketch -->
    <title>Combined Shape</title>
    <desc>Created with Sketch.</desc>
    <defs></defs>
    <g id="Page-1" stroke="none" stroke-width="1" fill="none" fill-rule="evenodd">
        <g id="daily-ui__12__single-product-1-full__alxmrtnz" transform="translate(-1294.000000, -41.000000)" fill="#FAF3EB">
            <g id="Group-7" transform="translate(0.000000, -2.000000)">
                <g id="Group">
                    <g id="Group-3" transform="translate(-8.404598, -54.605317)">
                        <g id="Group-9">
                            <path d="M1311.80381,126.897521 C1313.13783,126.897521 1314.21928,125.816565 1314.21928,124.483137 C1314.21928,123.14971 1313.13783,122.068753 1311.80381,122.068753 C1310.46978,122.068753 1309.38834,123.14971 1309.38834,124.483137 C1309.38834,125.816565 1310.46978,126.897521 1311.80381,126.897521 Z M1330.20969,127.09872 C1331.54372,127.09872 1332.62516,126.017763 1332.62516,124.684336 C1332.62516,123.350908 1331.54372,122.269952 1330.20969,122.269952 C1328.87566,122.269952 1327.79422,123.350908 1327.79422,124.684336 C1327.79422,126.017763 1328.87566,127.09872 1330.20969,127.09872 Z M1313.50269,117.662905 L1314.25591,115.558769 C1315.23458,115.834411 1316.21566,115.923743 1317.12146,115.923743 C1317.62469,115.923743 1318.10456,115.897588 1318.5482,115.863384 C1320.54861,115.709668 1322.64967,115.55555 1324.75032,115.402236 C1326.855,115.248118 1328.95968,115.094 1330.96412,114.940284 C1331.58973,114.892399 1332.12999,114.485173 1332.34939,113.897673 L1336.67107,102.31386 C1336.85545,101.819716 1336.78581,101.266823 1336.48468,100.833441 C1336.18395,100.400059 1335.68959,100.14172 1335.16221,100.14172 L1313.6915,100.14172 C1312.8022,100.14172 1312.08118,100.862413 1312.08118,101.751309 C1312.08118,102.640205 1312.8022,103.360898 1313.6915,103.360898 L1332.84295,103.360898 L1329.69117,111.808426 C1328.00437,111.935986 1326.25959,112.063948 1324.51482,112.191508 C1322.41014,112.345626 1320.30546,112.499744 1318.30062,112.65346 C1317.09208,112.747219 1315.54658,112.773777 1314.30583,112.148049 C1313.85615,111.921499 1313.51074,111.654308 1313.35856,111.415284 C1313.29536,111.315891 1313.20196,111.014898 1313.13996,110.815712 C1313.08078,110.624573 1313.02161,110.43786 1312.95719,110.266439 L1311.62989,106.728159 C1311.46967,106.301216 1311.31346,105.833228 1311.14841,105.337876 C1310.50348,103.40476 1309.7728,101.214108 1308.2277,99.7014969 C1307.26997,98.7631063 1306.03083,98.0685684 1304.73936,97.745041 C1303.87583,97.527344 1303.00223,98.0528749 1302.78605,98.9152124 C1302.56986,99.77755 1303.09402,100.651557 1303.95675,100.867644 C1304.69145,101.051942 1305.42656,101.464802 1305.97407,102.000795 C1306.96361,102.969768 1307.56385,104.768887 1308.09324,106.356344 C1308.26836,106.880668 1308.43342,107.376019 1308.61418,107.858091 L1309.94148,111.395968 C1309.98536,111.512664 1310.02401,111.640224 1310.06426,111.7706 C1310.19027,112.175815 1310.34728,112.680823 1310.64116,113.142373 C1310.84124,113.456243 1311.09164,113.748786 1311.38553,114.021209 L1310.47047,116.578846 C1310.429,116.693932 1310.39076,116.826723 1310.35251,116.965148 C1310.336,117.0243 1310.32111,117.087477 1310.30138,117.145422 C1310.11217,117.440379 1309.97852,117.779198 1309.9137,118.1321 C1309.78729,118.824223 1309.94631,119.503873 1310.36177,120.046707 C1310.94108,120.804018 1311.94793,121.233376 1313.43868,121.359327 C1313.87346,121.396347 1314.29335,121.402786 1314.70156,121.402786 C1314.81469,121.402786 1314.92701,121.402383 1315.03812,121.401578 L1331.70688,121.401578 C1332.59617,121.401578 1333.31719,120.680885 1333.31719,119.791989 C1333.31719,118.903093 1332.59617,118.1824 1331.70688,118.1824 L1315.35616,118.1824 L1315.02282,118.183607 C1314.55945,118.184814 1314.12225,118.187631 1313.71001,118.152622 C1313.58119,118.141758 1313.46887,118.128478 1313.37145,118.114395 C1313.40446,118.010576 1313.43143,117.912793 1313.45599,117.824668 C1313.47169,117.767126 1313.48578,117.71079 1313.50269,117.662905 Z" id="Combined-Shape"></path>
                        </g>
                    </g>
                </g>
            </g>
        </g>
    </g>
</svg>